<svg xmlns="http://www.w3.org/2000/svg" xmlns:xlink="http://www.w3.org/1999/xlink" viewBox="0 0 24.47 24.47"><defs><style>.cls-1,.cls-2{fill:url(#Degradado_sin_nombre_79);}.cls-2{fill-rule:evenodd;}</style><linearGradient id="Degradado_sin_nombre_79" x1="292" y1="12.23" x2="-0.63" y2="12.23" gradientUnits="userSpaceOnUse"><stop offset="0" stop-color="#ebb900"/><stop offset="1" stop-color="#ec7100"/></linearGradient></defs><title>Asset 3</title><g id="Layer_2" data-name="Layer 2"><g id="Capa_1" data-name="Capa 1"><path class="cls-1" d="M12.23,0A12.22,12.22,0,1,1,3.58,3.58,12.22,12.22,0,0,1,12.23,0Zm8,4.26a11.32,11.32,0,1,0,3.29,8,11.29,11.29,0,0,0-3.29-8Z"/><path class="cls-2" d="M13.17,9.73v-1a.53.53,0,0,1,.55-.6h1.4V6H13.19a2.43,2.43,0,0,0-2.63,2.62V9.73H9.31v2.5h1.26v6.25h2.5V12.23h1.85l.09-1,.14-1.52Z"/></g></g></svg>