<svg xmlns="http://www.w3.org/2000/svg" xmlns:xlink="http://www.w3.org/1999/xlink" viewBox="0 0 24.47 24.47"><defs><style>.cls-1,.cls-2{fill:url(#Degradado_sin_nombre_79);}.cls-2{fill-rule:evenodd;}</style><linearGradient id="Degradado_sin_nombre_79" x1="181.07" y1="12.23" x2="-111.56" y2="12.23" gradientUnits="userSpaceOnUse"><stop offset="0" stop-color="#ebb900"/><stop offset="1" stop-color="#ec7100"/></linearGradient></defs><title>Asset 6</title><g id="Layer_2" data-name="Layer 2"><g id="Capa_1" data-name="Capa 1"><path class="cls-1" d="M12.24,0A12.22,12.22,0,1,1,3.58,3.58,12.22,12.22,0,0,1,12.24,0Zm8,4.26a11.29,11.29,0,1,0,3.3,8,11.24,11.24,0,0,0-3.3-8Z"/><path class="cls-2" d="M6.71,12.35v5.41H9.29V10.39H6.71Zm11,.3c-.17-1.39-.81-2.26-2.69-2.26a2.32,2.32,0,0,0-2.17,1h0v-1H10.76v7.37h2.15V14.1c0-1,.19-1.89,1.36-1.89s1.28,1.1,1.28,2v3.59h2.21V13.71a8.78,8.78,0,0,0-.06-1.06ZM8,6.71A1.29,1.29,0,1,0,9.29,8,1.29,1.29,0,0,0,8,6.71Z"/></g></g></svg>