<svg xmlns="http://www.w3.org/2000/svg" xmlns:xlink="http://www.w3.org/1999/xlink" viewBox="0 0 24.47 24.47"><defs><style>.cls-1,.cls-2{fill:url(#Degradado_sin_nombre_79);}.cls-2{fill-rule:evenodd;}</style><linearGradient id="Degradado_sin_nombre_79" x1="254.53" y1="12.23" x2="-38.1" y2="12.23" gradientUnits="userSpaceOnUse"><stop offset="0" stop-color="#ebb900"/><stop offset="1" stop-color="#ec7100"/></linearGradient></defs><title>Asset 4</title><g id="Layer_2" data-name="Layer 2"><g id="Capa_1" data-name="Capa 1"><path class="cls-1" d="M12.23,0A12.22,12.22,0,1,1,3.58,3.58,12.2,12.2,0,0,1,12.23,0Zm8,4.26a11.32,11.32,0,1,0,3.29,8,11.29,11.29,0,0,0-3.29-8Z"/><path class="cls-2" d="M9.1,12.23a3.14,3.14,0,1,1,3.13,3.14A3.14,3.14,0,0,1,9.1,12.23ZM15.47,6.1H9A2.91,2.91,0,0,0,6.1,9v6.47A2.92,2.92,0,0,0,9,18.37h6.47a2.91,2.91,0,0,0,2.9-2.9V9a2.9,2.9,0,0,0-2.9-2.9ZM9,6.83h6.47A2.18,2.18,0,0,1,17.65,9v6.47a2.18,2.18,0,0,1-2.18,2.17H9a2.17,2.17,0,0,1-2.17-2.17V9A2.17,2.17,0,0,1,9,6.83Zm7.12.91a.64.64,0,1,0,.63.64.63.63,0,0,0-.63-.64Zm.07,4.49a4,4,0,1,0-4,4,4,4,0,0,0,4-4Z"/></g></g></svg>