<svg xmlns="http://www.w3.org/2000/svg" xmlns:xlink="http://www.w3.org/1999/xlink" viewBox="0 0 146.16 172.9"><defs><style>.cls-1{fill:url(#Degradado_sin_nombre_79);}.cls-2{fill:#3c3c3b;}.cls-3{fill:url(#Degradado_sin_nombre_79-3);}.cls-4{fill:#fff;}.cls-5{fill:#f39200;}</style><linearGradient id="Degradado_sin_nombre_79" x1="73.08" y1="-6.78" x2="73.08" y2="75.7" gradientUnits="userSpaceOnUse"><stop offset="0" stop-color="#ebb900"/><stop offset="1" stop-color="#ec7100"/></linearGradient><linearGradient id="Degradado_sin_nombre_79-3" x1="-15.29" y1="143.45" x2="161.26" y2="113.6" xlink:href="#Degradado_sin_nombre_79"/></defs><title>Asset 1</title><g id="Layer_2" data-name="Layer 2"><g id="Capa_1" data-name="Capa 1"><path class="cls-1" d="M44,28h6v9.9H60a14,14,0,0,1,10.73,5l2.23,2.63,2.23-2.63a14,14,0,0,1,10.74-5H96V28h6v9.9h12.5a41.57,41.57,0,0,0-82.82,0H44Z"/><path class="cls-1" d="M79,46.11l-6.07,7.16-6.07-7.16A9,9,0,0,0,60,42.91H31.53a41.57,41.57,0,0,0,83.1,0H85.89A9,9,0,0,0,79,46.11ZM50,57.66H44V46h6ZM96,46h6V57.66H96Z"/><path class="cls-2" d="M6,105.58h8.59V96.75h5.95v22.88H14.54v-9.44H6v9.44H0V96.75H6Z"/><path class="cls-2" d="M38.3,101.79H31.23v3.82h6.68v5H31.23v3.95H38.3v5h-13V96.75h13Z"/><path class="cls-2" d="M61.61,119.63H54.2l-5.67-8.8v8.8h-6V96.75h9.26a9.14,9.14,0,0,1,3.33.56,6.61,6.61,0,0,1,2.36,1.53,6.54,6.54,0,0,1,1.39,2.25,7.68,7.68,0,0,1,.47,2.73,6.7,6.7,0,0,1-1.26,4.23,6.29,6.29,0,0,1-3.71,2.2ZM48.53,107h1.12a4.36,4.36,0,0,0,2.7-.73,2.8,2.8,0,0,0,0-4.19,4.3,4.3,0,0,0-2.7-.73H48.53Z"/><path class="cls-2" d="M83.13,119.63H75.72l-5.67-8.8v8.8h-6V96.75h9.26a9.14,9.14,0,0,1,3.33.56,6.7,6.7,0,0,1,2.36,1.53,6.54,6.54,0,0,1,1.39,2.25,7.68,7.68,0,0,1,.47,2.73,6.7,6.7,0,0,1-1.26,4.23,6.29,6.29,0,0,1-3.71,2.2ZM70.05,107h1.12a4.38,4.38,0,0,0,2.7-.73,2.8,2.8,0,0,0,0-4.19,4.32,4.32,0,0,0-2.7-.73H70.05Z"/><path class="cls-2" d="M98.64,101.79H91.56v3.82h6.68v5H91.56v3.95h7.08v5h-13V96.75h13Z"/><path class="cls-2" d="M121.94,119.63h-7.4l-5.68-8.8v8.8h-5.94V96.75h9.25a9.16,9.16,0,0,1,3.34.56,6.65,6.65,0,0,1,2.35,1.53,6.42,6.42,0,0,1,1.4,2.25,7.91,7.91,0,0,1,.47,2.73,6.7,6.7,0,0,1-1.26,4.23,6.29,6.29,0,0,1-3.72,2.2ZM108.86,107H110a4.38,4.38,0,0,0,2.7-.73,2.8,2.8,0,0,0,0-4.19,4.32,4.32,0,0,0-2.7-.73h-1.13Z"/><path class="cls-2" d="M138.45,115.66H130l-1.37,4h-6.34L131,96.75h6.49l8.71,22.88h-6.34Zm-1.57-4.52-2.67-7.62-2.67,7.62Z"/><path class="cls-2" d="M49.15,124.35l6.11,15.4,6.14-15.4h7.14L57.87,149.64H52.64L42,124.35Z"/><path class="cls-2" d="M84.68,145.25h-9.4l-1.51,4.39h-7l9.63-25.29h7.18l9.63,25.29h-7Zm-1.75-5-3-8.42-3,8.42Z"/><path class="cls-2" d="M102.66,124.35v19.72h7.88v5.57H96.08V124.35Z"/><path class="cls-2" d="M120.5,124.35v19.72h7.89v5.57H113.93V124.35Z"/><path class="cls-2" d="M146.16,129.92h-7.81v4.22h7.38v5.57h-7.38v4.36h7.81v5.57H131.77V124.35h14.39Z"/><polygon class="cls-3" points="0 149.52 46.99 149.52 37.06 124.27 0 124.27 0 149.52"/><path class="cls-4" d="M5.8,130.14H11a6.14,6.14,0,0,1,2.59.55,7,7,0,0,1,2.12,1.48,6.82,6.82,0,0,1,1.42,2.15,6.49,6.49,0,0,1,.52,2.57,6.61,6.61,0,0,1-.51,2.56,6.7,6.7,0,0,1-1.42,2.16,6.9,6.9,0,0,1-2.11,1.49,6.2,6.2,0,0,1-2.61.55H5.8Zm3.52,10.54h.8a4.35,4.35,0,0,0,1.63-.29A3.3,3.3,0,0,0,13,139.6a3.42,3.42,0,0,0,.76-1.19,4.37,4.37,0,0,0,.26-1.52,4.12,4.12,0,0,0-.27-1.5,3.52,3.52,0,0,0-.76-1.2,3.48,3.48,0,0,0-1.21-.79,4.37,4.37,0,0,0-1.62-.29h-.8Z"/><path class="cls-4" d="M27.58,133.11H23.41v2.26h3.94v3H23.41v2.33h4.17v3H19.89V130.14h7.69Z"/><path class="cls-4" d="M33.63,130.14v10.54h4.21v3H30.11V130.14Z"/><path class="cls-5" d="M67.76,160.21h0l.33-.06.3-.1.19-.06.53-.15a4.17,4.17,0,0,0,.54-.17,7.89,7.89,0,0,0,.75-.27,1.2,1.2,0,0,0,.67-.57.52.52,0,0,0,0-.49.56.56,0,0,0-.3-.27.61.61,0,0,0-.38,0,.47.47,0,0,0-.35.32.42.42,0,0,1-.12.09l-.33.19-.36.17-.37.15a.92.92,0,0,1-.29.07c-.2.05-.41.1-.62.17a1.94,1.94,0,0,0-.54.27.42.42,0,0,0-.17.3.4.4,0,0,0,.16.34A.45.45,0,0,0,67.76,160.21Z"/><path class="cls-5" d="M80.68,164.15a.79.79,0,0,0-.3.08l-.28.14-.28.15-.18.11-.81.35-.29.12a3.35,3.35,0,0,1-.38.14,1.81,1.81,0,0,1-.31.09l.09-.12.2-.21a1.35,1.35,0,0,0,.15-.17c.14-.17.28-.32.42-.47a4.48,4.48,0,0,0,.41-.52,1.13,1.13,0,0,0,.19-.57.67.67,0,0,0-.16-.47.75.75,0,0,0-.42-.25,1.23,1.23,0,0,0-.57,0,7.41,7.41,0,0,0-1.41.59l-1.29.71-.5.23a1.58,1.58,0,0,1,.17-.3.61.61,0,0,0,.06-.6c-.08-.19-.3-.39-.83-.28a5.85,5.85,0,0,0-1.09.37l-2.77,1.34a2.76,2.76,0,0,1-.66.11.91.91,0,0,1-.57-.15l-.07-.05a2.06,2.06,0,0,0,.23-.61.83.83,0,0,0-.26-.83A.58.58,0,0,0,69,163a.6.6,0,0,0-.22-.31c-.43-.42-2.71.53-3,.64l-2,.87-1.57.73c-.22.08-.46.15-.73.23a1.63,1.63,0,0,1-.55.08.57.57,0,0,1,0-.34,4.17,4.17,0,0,1,.23-.63,1.05,1.05,0,0,1,.15-.3,1,1,0,0,0,.21-.44c.09-.48-.21-.59-.3-.62a1.38,1.38,0,0,0-.57,0,4.62,4.62,0,0,0-.6.19l-.38.17s-3.89,1.77-4.2,1.86a5.15,5.15,0,0,1-.92.18,2.65,2.65,0,0,1-.85-.05,1.12,1.12,0,0,1-.61-.39.48.48,0,0,1-.1-.53.92.92,0,0,1,.48-.45,1.38,1.38,0,0,1,.46-.15,2,2,0,0,1,.48,0l.29,0a.64.64,0,0,0,.34,0,.56.56,0,0,0,.4-.21.58.58,0,0,0,.1-.36.61.61,0,0,0-.15-.35.69.69,0,0,0-.37-.23,3.06,3.06,0,0,0-.88.07,4.91,4.91,0,0,0-.8.23,1.74,1.74,0,0,0-.38.14l-.33.16a10.12,10.12,0,0,0-1,.52c-.3.18-2.11,1-2.4,1.14a6,6,0,0,1-.86.32,8.67,8.67,0,0,1-.84.22,3.09,3.09,0,0,1-.55.05v0a.38.38,0,0,1,.1-.17l.18-.19a.7.7,0,0,0,.2-.33.55.55,0,0,0-.21-.64.47.47,0,0,0-.68.08,4.42,4.42,0,0,1-.9.72,1.9,1.9,0,0,1-.28.17l-.5.24a3.39,3.39,0,0,1-.51.17h-.19a.44.44,0,0,1,.05-.13,2.74,2.74,0,0,1,.35-.51,6,6,0,0,1,.47-.52,3.45,3.45,0,0,1,.31-.3l.41-.26a2,2,0,0,1,.39-.16l.9-.1a.85.85,0,0,0,.49-.3c.07-.07.26-.36-.14-.71a.9.9,0,0,0-.64-.09,4.85,4.85,0,0,0-.77.14c-.27.07-.53.14-.77.22l-.5.18-.65.26-.8.34c-.29.12-2.48,1.23-2.78,1.32l-.82.25a5.15,5.15,0,0,1-.92.18,2.65,2.65,0,0,1-.85-.05,1.15,1.15,0,0,1-.61-.39c-.19-.26-.15-.43-.09-.53a.89.89,0,0,1,.48-.45,1.33,1.33,0,0,1,.45-.15,2,2,0,0,1,.49,0l.29,0a.61.61,0,0,0,.33,0,.56.56,0,0,0,.4-.21.52.52,0,0,0,.1-.36.61.61,0,0,0-.15-.35.69.69,0,0,0-.37-.23,3.09,3.09,0,0,0-.88.07,4.49,4.49,0,0,0-.79.23,1.64,1.64,0,0,0-.39.14l-.33.16a10.12,10.12,0,0,0-1,.52c-.28.17-2.45,1.17-2.5,1.19-.22.08-.47.15-.73.23a1.63,1.63,0,0,1-.55.08.45.45,0,0,1,0-.34,4.19,4.19,0,0,1,.22-.63,1.1,1.1,0,0,1,.16-.3,1.09,1.09,0,0,0,.2-.44c.09-.48-.2-.59-.3-.62a1.38,1.38,0,0,0-.57,0,5.16,5.16,0,0,0-.6.19l-.38.17-2.59,1.31-.51.19a4.5,4.5,0,0,1-.49.14.65.65,0,0,1-.53-.11.75.75,0,0,1-.16-.57l.75-1.43.42-.36c.17-.14.32-.28.46-.42a15,15,0,0,0,1.29-1.24,12.78,12.78,0,0,0,1.09-1.39,3.06,3.06,0,0,0,.31-.45,2.53,2.53,0,0,0,.29-.63.91.91,0,0,0,0-.65c-.1-.23-.33-.35-.71-.35a1.52,1.52,0,0,0-.83.24,3.29,3.29,0,0,0-.63.56,4.69,4.69,0,0,0-.49.68c-.14.23-.27.45-.37.64-.29.46-.56.95-.81,1.44s-.47.94-.72,1.4c-.48.37-1,.72-1.51,1s-3.14,1.58-3.2,1.6c-.22.08-.46.15-.73.23a1.59,1.59,0,0,1-.55.08.57.57,0,0,1,0-.34,4.17,4.17,0,0,1,.23-.63A1.05,1.05,0,0,1,21,164a1.12,1.12,0,0,0,.21-.44c.09-.48-.21-.59-.3-.62a1.38,1.38,0,0,0-.57,0,5.3,5.3,0,0,0-.61.19l-.37.17-3.11,1.57a10,10,0,0,1-1.1.52l-.67.27a2.21,2.21,0,0,1-.42.12,2.68,2.68,0,0,1,.07-.27,2.31,2.31,0,0,1,.1-.28l.08-.24.36-1c.5-.47,1-1,1.41-1.45s.91-1,1.36-1.58l.86-1a8.06,8.06,0,0,0,.79-1.12,1.67,1.67,0,0,0,.15-.38,1.22,1.22,0,0,0,0-.42.7.7,0,0,0-.16-.42.71.71,0,0,0-.42-.22.65.65,0,0,0-.39,0l-.3.09a2.65,2.65,0,0,0-.9.74q-.36.45-.66.87c-.22.31-.42.62-.61.93l-.55.91c-.27.45-.52.9-.78,1.36l-.37.7a.58.58,0,0,0-.46-.23,2.73,2.73,0,0,0-.92.15s-1.13.36-1.35.46-.66.31-1,.49a6.7,6.7,0,0,1-.94.42.4.4,0,0,0-.28.28.48.48,0,0,0,0,.29.45.45,0,0,0,.19.24.42.42,0,0,0,.38,0,1.29,1.29,0,0,0,.55-.22l.08,0a2.19,2.19,0,0,0-.29.57,1.05,1.05,0,0,0,0,.72.85.85,0,0,0,.63.51,1.14,1.14,0,0,0,.58,0,1.78,1.78,0,0,0,.52-.21,2.51,2.51,0,0,0,.46-.32l.36-.33.39-.34a2.07,2.07,0,0,0-.08.42,1.18,1.18,0,0,0,0,.5.82.82,0,0,0,.32.47.89.89,0,0,0,.5.15,1.47,1.47,0,0,0,.5-.09,3.07,3.07,0,0,0,.45-.2l.36-.19,1.08-.59c.37-.2,2.12-1.12,2.31-1.2a7.43,7.43,0,0,1,.82-.34l.49-.17c0,.12-.07.24-.1.37a3.21,3.21,0,0,0-.12.84,1.25,1.25,0,0,0,.2.72.66.66,0,0,0,.6.29h.19a3.78,3.78,0,0,0,1-.31l.89-.43.34-.14a5.38,5.38,0,0,0,.55-.24l.28-.15a.56.56,0,0,0,.23-.06l.28-.14c.26-.13.51-.27.76-.42l.07,0-.1.08a11.34,11.34,0,0,0-.89.94,8.44,8.44,0,0,0-.72,1,5.63,5.63,0,0,0-.46,1l-.09.33c0,.14-.08.28-.11.43a2.25,2.25,0,0,0,0,.44,1,1,0,0,0,.1.44.5.5,0,0,0,.44.31.52.52,0,0,0,.17,0,1.1,1.1,0,0,0,.47-.36c.13-.15.26-.32.38-.49l.23-.36c.3-.49.59-1,.88-1.48s.45-.81.67-1.22a1.42,1.42,0,0,0,.52.34,2,2,0,0,0,1.07,0c.33-.1.64-.21.94-.32,0,0,2.11-1.05,2.39-1.15l.48-.17c0,.12-.07.24-.1.37a3.18,3.18,0,0,0-.11.84,1.25,1.25,0,0,0,.19.72.67.67,0,0,0,.6.29h.19a4,4,0,0,0,1-.31c.3-.14,3-1.41,3.15-1.5a1,1,0,0,0,0,.42,1.66,1.66,0,0,0,.39.77,2.07,2.07,0,0,0,.71.48,2,2,0,0,0,.78.16h.1a5.36,5.36,0,0,0,1.89-.35c.6-.23,2.8-1.3,3-1.4l.66-.33-.08.1a5.11,5.11,0,0,0-.42.66,1.29,1.29,0,0,0-.18.62.84.84,0,0,0,.39.72,1.25,1.25,0,0,0,.77.2,2.19,2.19,0,0,0,.85-.28l.71-.41.16-.09,0,.16a.79.79,0,0,0,.53.54,1.23,1.23,0,0,0,.47.09h.2a3.5,3.5,0,0,0,.64-.15c.21-.07,4-1.81,4.1-1.9a1.18,1.18,0,0,0,0,.42,1.78,1.78,0,0,0,.4.77,2,2,0,0,0,.71.48,1.91,1.91,0,0,0,.78.16H54a5.36,5.36,0,0,0,1.89-.35c.6-.23,2.76-1.29,2.95-1.37a6.86,6.86,0,0,1,.83-.34l.48-.17c0,.12-.07.24-.1.37a3.21,3.21,0,0,0-.12.84,1.25,1.25,0,0,0,.2.72.66.66,0,0,0,.6.29h.19a3.78,3.78,0,0,0,1-.31c.3-.14,3.4-1.59,3.68-1.71,0,0-.09.11-.14.17a3.11,3.11,0,0,0-.36.67,1.23,1.23,0,0,0-.06.73.93.93,0,0,0,.59.61,1.58,1.58,0,0,0,.61.12h.17a2.14,2.14,0,0,0,.75-.2,3.37,3.37,0,0,0,.66-.39,6.72,6.72,0,0,0,.57-.46l.29-.31a1.4,1.4,0,0,0,.44.22,3,3,0,0,0,1.36,0c.22-.05.44-.1.65-.17l1.93-.91.54-.22.34-.12.08,0,0,.18a1.69,1.69,0,0,0-.14.26,2.11,2.11,0,0,1-.16.3.83.83,0,0,0-.35.42.55.55,0,0,0,.27.65.65.65,0,0,0,.33.06.6.6,0,0,0,.34-.15,4.44,4.44,0,0,1,1-.78c.4-.23.8-.44,1.18-.62s.62-.3,1-.45a3.87,3.87,0,0,1,.61-.19,1.83,1.83,0,0,1-.13.16c-.22.25-.32.35-.38.41l-.27.25-.29.3a2.7,2.7,0,0,0-.25.34.85.85,0,0,0-.13.47.65.65,0,0,0,.4.69,1.23,1.23,0,0,0,.39.06,1.24,1.24,0,0,0,.33,0,3.33,3.33,0,0,0,.74-.23l.51-.23.53-.25c.18-.09.36-.18.53-.28l.42-.19.4-.2a.52.52,0,0,0,.26-.46A.38.38,0,0,0,80.68,164.15Zm-13.26-.23a2.45,2.45,0,0,1,.56-.18,2.28,2.28,0,0,0,0,.26,2.09,2.09,0,0,0,.09.52.7.7,0,0,1-.15.19l-.29.29a1.73,1.73,0,0,1-.75.41,2.21,2.21,0,0,1-.89,0H65.9a.86.86,0,0,1,.16-.34,2.67,2.67,0,0,1,.34-.43l.28-.29A2.87,2.87,0,0,1,67.42,163.92Zm-38.35-4.13a7.19,7.19,0,0,1,.66-.8.57.57,0,0,1,.11-.11l0,0a7.07,7.07,0,0,1-.73,1h0l-.42.49C28.8,160.18,28.93,160,29.07,159.79Zm-4.75,6.74c-.12.17-.23.34-.36.51a3.74,3.74,0,0,1,.32-.49l.15-.2A1.74,1.74,0,0,0,24.32,166.53Zm-12-1.74c-.19.14-.4.28-.6.4a.68.68,0,0,0-.17.1l-.22.13-.15.07.06-.16.12-.25.08-.15a2.33,2.33,0,0,1,.58-.59,2.45,2.45,0,0,1,.5-.34,1.27,1.27,0,0,1,.46-.14h.52l-.56.5Zm4.42-4.67a17.55,17.55,0,0,1,1.58-1.84,21,21,0,0,1-1.25,1.81c-.78,1-1.58,1.88-1.58,1.88S16,161.16,16.77,160.12Z"/><path class="cls-5" d="M133.09,160.3a.53.53,0,0,0,.61-.1l.27-.31.23-.22a2.35,2.35,0,0,1,.33-.3,1,1,0,0,1,.28-.16,2.13,2.13,0,0,1,.08.32,1.73,1.73,0,0,0,.15.47.8.8,0,0,0,.32.36.69.69,0,0,0,.36.09l.26,0a4.06,4.06,0,0,0,.44-.16c.16-.07.33-.16.49-.25l.43-.3c.13-.11.25-.21.35-.31a.5.5,0,0,0,.11-.6.55.55,0,0,0-.48-.36.5.5,0,0,0-.48.19l-.21.23-.23.22a4.47,4.47,0,0,1-.35.29l-.25.15a1.9,1.9,0,0,1-.09-.36,1.52,1.52,0,0,0-.15-.44.79.79,0,0,0-.31-.36.76.76,0,0,0-.59-.08,2.37,2.37,0,0,0-.93.45l-.74.58h0a.6.6,0,0,0-.22.5A.54.54,0,0,0,133.09,160.3Z"/><path class="cls-5" d="M145.82,164.39a.4.4,0,0,0-.47-.2,1.9,1.9,0,0,0-.43.13l-.42.19a1.3,1.3,0,0,1-.26.11,2.85,2.85,0,0,1-.66.11.91.91,0,0,1-.57-.15l-.08-.05a2.42,2.42,0,0,0,.24-.61.84.84,0,0,0-.27-.83.5.5,0,0,0-.19-.1.55.55,0,0,0-.22-.31.93.93,0,0,0-.73-.1,2.35,2.35,0,0,0-.59.22l-.81.24a7.69,7.69,0,0,0-.85.28l-2.07.9h-.07l-.27.14-.28.15-.18.11-.81.35-.29.12-.38.14a1.81,1.81,0,0,1-.31.09l.09-.12a2,2,0,0,1,.2-.21l.15-.17.41-.47a3,3,0,0,0,.41-.52,1.06,1.06,0,0,0,.2-.57.72.72,0,0,0-.16-.47.82.82,0,0,0-.42-.25,1.23,1.23,0,0,0-.57,0,7.15,7.15,0,0,0-1.41.59l-1.29.71-.5.23a2.25,2.25,0,0,1,.16-.3.59.59,0,0,0,.07-.6c-.09-.19-.3-.38-.83-.28a5.85,5.85,0,0,0-1.09.37c-.38.18-.75.36-1.11.55l-.74.41a.49.49,0,0,0-.16.1l-.12.06-.41.19a8.26,8.26,0,0,1-.87.34q-.44.13-.9.24a4.88,4.88,0,0,1-.71.07,1.85,1.85,0,0,1-.71-.08,1.46,1.46,0,0,1-.58-.3.84.84,0,0,1-.2-.28,2.32,2.32,0,0,0,.7-.09,2.72,2.72,0,0,0,.84-.35l.31-.19a2.1,2.1,0,0,0,.41-.31,1.27,1.27,0,0,0,.29-.42.49.49,0,0,0-.1-.54,1,1,0,0,0-.71-.38,2.8,2.8,0,0,0-.71,0,3.3,3.3,0,0,0-1.08.41,2.33,2.33,0,0,0-.77.76,6.28,6.28,0,0,0-.74.36l-.66.35a.44.44,0,0,0-.17.06l-1.69.89,0-.16a1,1,0,0,0-.55-.58,1.12,1.12,0,0,0-.35-.12l-.43-.11-.2-.07h0a2.26,2.26,0,0,0,.39-.15,1,1,0,0,0,.32-.23c.08-.09.18-.27,0-.59a.61.61,0,0,0-.28-.2.64.64,0,0,0-.36,0,2.83,2.83,0,0,0-.84.22l-.91.41c-.3.15-3.24,1.55-3.51,1.63a1.56,1.56,0,0,1-.55.08.57.57,0,0,1,0-.34,5.72,5.72,0,0,1,.22-.63,1.4,1.4,0,0,1,.16-.29,1.41,1.41,0,0,0,.21-.45c.09-.48-.21-.59-.3-.62a1.43,1.43,0,0,0-.58,0,5.85,5.85,0,0,0-.6.19l-.37.17-1.55.74a23,23,0,0,0,2.12-3.76,20.61,20.61,0,0,0,1.43-4.43,6.23,6.23,0,0,0,.11-1.18,4.66,4.66,0,0,0-.15-1.21,2.63,2.63,0,0,0-.55-1,1.91,1.91,0,0,0-1.13-.6,2.69,2.69,0,0,0-1.59.18,6.64,6.64,0,0,0-1.5.9,11.76,11.76,0,0,0-1.31,1.23q-.6.67-1,1.2l-.11.15c.09-.28.18-.56.26-.83s.18-.59.26-.89l.07-.23a1.22,1.22,0,0,0,0-.32.74.74,0,0,0-.08-.34.43.43,0,0,0-.39-.21.48.48,0,0,0-.38.18,1.23,1.23,0,0,0-.19.31,2.3,2.3,0,0,0-.1.35,2.33,2.33,0,0,1-.06.25c-.23.86-.49,1.73-.76,2.6s-.56,1.74-.86,2.6a5.51,5.51,0,0,1-.27.65,1.05,1.05,0,0,1-.41.43l-.36.22-.3.19c-.1.06-.2.14-.31.22l-.33.28a8.53,8.53,0,0,0-1.11,1.14c-.33.4-.64.83-.94,1.26a8,8,0,0,0-.64,1.15,5.77,5.77,0,0,0-.4,1.26A4.83,4.83,0,0,0,98.6,167a3.49,3.49,0,0,0,.38,1.29,3,3,0,0,0,1,1.1,3,3,0,0,0,1.23.5,3.08,3.08,0,0,0,.61.06,3.91,3.91,0,0,0,.75-.08,5.36,5.36,0,0,0,1.35-.45,9.88,9.88,0,0,0,1.53-1,17.87,17.87,0,0,0,1.5-1.3c.48-.47.94-.95,1.36-1.44a10.16,10.16,0,0,1,2-1.08,7.43,7.43,0,0,1,.82-.34l.48-.17-.09.37a3.27,3.27,0,0,0-.12.84,1.25,1.25,0,0,0,.19.72.69.69,0,0,0,.61.29h.18a3.73,3.73,0,0,0,1-.31l.89-.43,2.59-1.27.27-.11v0a.79.79,0,0,0,.28.45,1.35,1.35,0,0,0,.53.21,4.91,4.91,0,0,1,.58.16.8.8,0,0,1,.3.16s0,.06-.14.2a.85.85,0,0,1-.27.23,1.94,1.94,0,0,1-.43.22,1.38,1.38,0,0,1-.63,0s-.15,0-.18-.28a.59.59,0,0,0-.21-.41.56.56,0,0,0-.42-.08.72.72,0,0,0-.36.2.55.55,0,0,0-.13.44,1,1,0,0,0,.38.79,1.23,1.23,0,0,0,.85.33,3.15,3.15,0,0,0,1.16-.23c.35-.15.72-.31,1.11-.5l1-.51,1-.47.27-.11,0,0A.58.58,0,0,0,122,165a1.24,1.24,0,0,1,.25-.15l.36-.22.09-.06c0,.1,0,.21.07.31a1.78,1.78,0,0,0,.45.81,2.16,2.16,0,0,0,.7.47,2.41,2.41,0,0,0,.82.2H125a2.85,2.85,0,0,0,.64-.07,18.55,18.55,0,0,0,1.83-.6l1-.44.3-.11a.71.71,0,0,0,.3-.21,1.11,1.11,0,0,0,.19-.09l.27-.15.54-.23.54-.23.34-.12.08,0,0,.18a1.69,1.69,0,0,0-.14.26c0,.11-.11.21-.16.3a.79.79,0,0,0-.35.42.53.53,0,0,0,0,.4.49.49,0,0,0,.24.25.61.61,0,0,0,.33.06.6.6,0,0,0,.34-.15,4.18,4.18,0,0,1,1-.78c.4-.23.79-.44,1.18-.62a9.11,9.11,0,0,1,1-.45,3.57,3.57,0,0,1,.61-.19,1.83,1.83,0,0,1-.13.16c-.22.25-.33.35-.39.41l-.26.25-.29.3a2,2,0,0,0-.25.34.85.85,0,0,0-.13.47.65.65,0,0,0,.4.69,1.23,1.23,0,0,0,.39.06,1.24,1.24,0,0,0,.33,0,3.25,3.25,0,0,0,.73-.23l.52-.23.53-.25c.18-.09.36-.18.53-.28l.42-.19.28-.14h.07A1.53,1.53,0,0,0,138,165l.25-.13.18-.11.83-.39-.13.17a2.43,2.43,0,0,0-.36.67,1.16,1.16,0,0,0-.06.73.93.93,0,0,0,.59.61,1.53,1.53,0,0,0,.6.12h.18a2.2,2.2,0,0,0,.75-.2,4.4,4.4,0,0,0,.66-.39,6.54,6.54,0,0,0,.56-.46l.3-.31a1.46,1.46,0,0,0,.43.22,3,3,0,0,0,1.36,0,5.59,5.59,0,0,0,.65-.17l.24-.08.36-.13a1,1,0,0,0,.35-.24A.45.45,0,0,0,145.82,164.39Zm-4.67-.47a2.7,2.7,0,0,1,.57-.18,1.14,1.14,0,0,0,0,.26,2.09,2.09,0,0,0,.09.52,1,1,0,0,1-.16.19l-.28.29a1.85,1.85,0,0,1-.75.41,2.25,2.25,0,0,1-.9,0h-.06a1.11,1.11,0,0,1,.15-.35c.1-.14.22-.28.34-.42l.28-.29A3.25,3.25,0,0,1,141.15,163.92Zm-16.39-.7a1.75,1.75,0,0,1-.35.2,1.51,1.51,0,0,1-.35.14,1.37,1.37,0,0,1,.29-.2A1.32,1.32,0,0,1,124.76,163.22ZM101.67,163c-.27.57-.53,1.13-.78,1.69a.89.89,0,0,0-.1.7.53.53,0,0,0,.44.35,1.11,1.11,0,0,0,.56-.13,1.57,1.57,0,0,0,.52-.45,4.52,4.52,0,0,0,.44-.76c.16-.31.3-.63.44-1l.12-.33c.06-.17.13-.36.2-.57l.25-.66.24-.64c.07-.2.13-.36.19-.49s0-.11.06-.14a.41.41,0,0,1,.17,0l.45-.07a1.23,1.23,0,0,0,.42-.17.46.46,0,0,0,.19-.52.49.49,0,0,0-.33-.35,1,1,0,0,0-.38,0h-.08c.07-.14.16-.31.27-.5s.27-.45.42-.7l.86-1.35a3.87,3.87,0,0,1,.25-.36l0-.06c.23-.34.52-.71.85-1.13a11.57,11.57,0,0,1,1.07-1.16,7.51,7.51,0,0,1,1.21-.93,2.68,2.68,0,0,1,1.22-.43,1.05,1.05,0,0,1,.81.17,1.2,1.2,0,0,1,.41.63,3.39,3.39,0,0,1,.1,1,7.11,7.11,0,0,1-.12,1.15,10.38,10.38,0,0,1-.23,1.06c-.08.33-.15.59-.21.77a23.26,23.26,0,0,1-1.18,2.95,20.87,20.87,0,0,1-1.57,2.76,21.5,21.5,0,0,1-2,2.47,19,19,0,0,1-2.38,2.1c-.27.2-.56.38-.86.56a4.42,4.42,0,0,1-.92.4,3.09,3.09,0,0,1-1,.15,2,2,0,0,1-.91-.2,1.73,1.73,0,0,1-.77-.6,2.29,2.29,0,0,1-.39-.87,3.14,3.14,0,0,1,0-1,4.27,4.27,0,0,1,.24-1,5.93,5.93,0,0,1,.5-1,11.14,11.14,0,0,1,.74-1.1c.28-.35.57-.69.86-1,.07-.07.13-.14.2-.2C102,162.26,101.85,162.61,101.67,163Z"/><path class="cls-5" d="M93.45,164.17a3.44,3.44,0,0,0-.66.36c-.25.16-.51.35-.79.57l-.77.65-.64.58c-.18.17-.31.29-.35.34l-.19.18.58-1.06c.09-.15.18-.29.26-.44a3.93,3.93,0,0,1,.28-.44q.09-.16.24-.39a1.59,1.59,0,0,0,.26-.54.51.51,0,0,0-.1-.42.45.45,0,0,0-.32-.19.64.64,0,0,0-.38,0,.85.85,0,0,0-.28.18,8,8,0,0,1-.69.62,9,9,0,0,1-.79.59l-.21.14-.42.25-.42.21h0a.55.55,0,0,1,0-.17l.09-.26a2.53,2.53,0,0,1,.12-.23,4.49,4.49,0,0,1,.62-1,2.6,2.6,0,0,1,.29-.28,1.2,1.2,0,0,0,.33-.36.51.51,0,0,0,0-.65.56.56,0,0,0-.58-.25,2.47,2.47,0,0,0-.83.39,4.56,4.56,0,0,1-.69.42c-.72.39-1.48.78-2.25,1.16a.39.39,0,0,0-.28.36.45.45,0,0,0,.22.43.52.52,0,0,0,.51,0l.25-.15.67-.34.65-.32.38-.16-.13.23a4.85,4.85,0,0,0-.35.84,1.79,1.79,0,0,0-.06.78.71.71,0,0,0,.5.58.92.92,0,0,0,.63.07,1.74,1.74,0,0,0,.55-.23,4.29,4.29,0,0,0,.48-.36l.39-.34.11-.08-.12.27c-.34.7-.69,1.37-1,2s-.71,1.33-1.08,2c-.18.34-.36.67-.54,1l-.53,1-.17.24a.48.48,0,0,0-.06.46.54.54,0,0,0,.36.4.58.58,0,0,0,.19,0,.7.7,0,0,0,.37-.12,1.1,1.1,0,0,0,.2-.31,1.51,1.51,0,0,1,.13-.25c.13-.26.27-.52.41-.78l.43-.78c.4-.63.82-1.24,1.27-1.83A16.49,16.49,0,0,1,91,167.17c.26-.27.53-.53.8-.76s.57-.47.87-.7l.31-.18a5,5,0,0,0,.53-.32,3.4,3.4,0,0,0,.44-.36.46.46,0,0,0,.15-.55C94,164.21,93.84,164,93.45,164.17Z"/><circle class="cls-5" cx="22.1" cy="159.49" r="0.79"/><circle class="cls-5" cx="33.63" cy="159.49" r="0.79"/><circle class="cls-5" cx="62.36" cy="159.49" r="0.79"/><circle class="cls-5" cx="114.76" cy="159.49" r="0.79"/><path class="cls-5" d="M8.45,160.75l-5.88.08c.29-.61.59-1.17.82-1.62A24.65,24.65,0,0,1,4.61,157l6.92-.19a.55.55,0,0,0,0-1.09l-6.15.17c.37-.54-.36-1.27-.79-.73-.19.25-.37.51-.55.77L.86,156c-.69,0-.69,1.11,0,1.09l2.47-.07A27.37,27.37,0,0,0,1.84,160c-.12.28-.26.58-.4.88H.81a.55.55,0,0,0,0,1.09H1c-.55,1.4-.9,2.93-.11,4.21,1.39,2.26,5.06,2.56,7.45,2.51a.55.55,0,0,0,0-1.09c-1.9.05-4.62-.1-6.06-1.47-1.09-1-.78-2.66-.18-4.18l6.37-.09A.54.54,0,0,0,8.45,160.75Z"/></g></g></svg>