<svg xmlns="http://www.w3.org/2000/svg" xmlns:xlink="http://www.w3.org/1999/xlink" viewBox="0 0 166 59.91"><defs><style>.cls-1{fill:url(#linear-gradient);}.cls-2{fill:#3c3c3b;}.cls-3{fill:#f39200;stroke:#f39200;stroke-miterlimit:10;stroke-width:0.5px;}</style><linearGradient id="linear-gradient" x1="29.89" y1="433.17" x2="29.89" y2="492.5" gradientTransform="translate(0 -438)" gradientUnits="userSpaceOnUse"><stop offset="0" stop-color="#ebb900"/><stop offset="1" stop-color="#ec7100"/></linearGradient></defs><title>Asset 3</title><g id="Layer_2" data-name="Layer 2"><g id="Layer_1-2" data-name="Layer 1"><path class="cls-1" d="M9,20.19h4.32v7.12H20.5a9.92,9.92,0,0,1,7.7,3.6l1.58,1.87,1.59-1.87a10,10,0,0,1,7.69-3.6h7.27V20.19h4.32v7.12h9.06a29.94,29.94,0,0,0-59.64,0H8.92V20.19Z"/><path class="cls-1" d="M34.17,33.21l-4.39,5.18-4.39-5.18a6.49,6.49,0,0,0-5-2.3H0a29.9,29.9,0,0,0,59.78,0H39.14A6.5,6.5,0,0,0,34.17,33.21ZM13.31,41.55H9V33.14h4.32ZM46.4,33.14h4.32v8.41H46.4Z"/><path class="cls-2" d="M80.39,20.68h12V8.33h8.32v32H92.39V27.12h-12v13.2H72.08v-32h8.31Z"/><path class="cls-2" d="M105.72,8.33H118a14.49,14.49,0,0,1,6.13,1.32,16.51,16.51,0,0,1,5,3.5,16.29,16.29,0,0,1,3.38,5.09,15.4,15.4,0,0,1,1.23,6.08,15.71,15.71,0,0,1-1.21,6.05A16.28,16.28,0,0,1,124.19,39,14.58,14.58,0,0,1,118,40.32h-12.3ZM114,33.27h1.91a10.38,10.38,0,0,0,3.86-.67,8.4,8.4,0,0,0,2.86-1.87,7.92,7.92,0,0,0,1.78-2.82,10.14,10.14,0,0,0,.62-3.59,9.7,9.7,0,0,0-.64-3.56,8.1,8.1,0,0,0-1.8-2.84,8.26,8.26,0,0,0-2.86-1.87,10.28,10.28,0,0,0-3.82-.68H114Z"/><path class="cls-2" d="M141.48,8.33,149.2,27.8,157,8.33h9l-13.5,32h-6.61l-13.45-32Z"/><path class="cls-3" d="M77.23,45.65a5.29,5.29,0,0,0-.55.6l-.49.68-.6.88c-.2.3-.4.6-.59.91h0a.69.69,0,0,1,.2,0,1,1,0,0,1,.3,0,.41.41,0,0,1,.22.08s0,.11,0,.2a.13.13,0,0,1-.16.06l-.18,0H75l-.27,0c-.18.28-.35.57-.52.86a3.77,3.77,0,0,0-.39.9l0,.2a.21.21,0,0,0,0,.18.2.2,0,0,0,.2.07l.23,0a2.21,2.21,0,0,0,.53-.18l.52-.25,1-.48.5-.26.1,0a.09.09,0,0,1,.1,0,.13.13,0,0,1,0,.11.11.11,0,0,1-.06.1l-.9.44c-.31.13-.6.28-.89.43l-.57.31a1.38,1.38,0,0,1-.6.18.58.58,0,0,1-.34,0,.45.45,0,0,1-.24-.23.66.66,0,0,1,0-.48,2.53,2.53,0,0,1,.19-.44,7,7,0,0,1,.35-.66q.18-.32.39-.63l-.38.1-.36.1a5.41,5.41,0,0,0-.77.27c-.26.1-.51.22-.75.34s-.32.48-.49.72a8.32,8.32,0,0,1-.53.68l-.31.32a1.23,1.23,0,0,1-.4.23.37.37,0,0,1-.24,0,.24.24,0,0,1-.11-.13.5.5,0,0,1,0-.21.46.46,0,0,1,.06-.23,1.61,1.61,0,0,1,.3-.45,3,3,0,0,1,.41-.38l.46-.33.47-.27.26-.15c.12-.18.23-.36.33-.53s.21-.36.32-.54l.48-.89a4.48,4.48,0,0,0,.37-.94,1.7,1.7,0,0,0,0-.22.41.41,0,0,0,0-.22.25.25,0,0,0-.06-.18l-.15-.11a.25.25,0,0,1-.07-.12.24.24,0,0,1,0-.12.23.23,0,0,1,.1-.07.15.15,0,0,1,.13,0,.52.52,0,0,1,.32.31,1,1,0,0,1,0,.46,2.33,2.33,0,0,1-.12.49,3.31,3.31,0,0,1-.18.41,6.3,6.3,0,0,1-.54,1l-.65,1c.25-.11.5-.22.76-.31S73.69,49,74,49a3.88,3.88,0,0,1,.71-.18l.45-.64.43-.65.48-.74c.16-.24.33-.49.5-.72s.14-.23.23-.36a1,1,0,0,1,.28-.31.21.21,0,0,1,.13,0,.26.26,0,0,1,.1.07.28.28,0,0,1,0,.13A.14.14,0,0,1,77.23,45.65Zm-6.37,5.2-.13.13a2.09,2.09,0,0,0-.14.17,2.14,2.14,0,0,0-.13.19.38.38,0,0,0-.06.19,1,1,0,0,0,.34-.21,2.58,2.58,0,0,0,.34-.32,3.47,3.47,0,0,0,.3-.37l.25-.32.09-.14-.46.31A2.79,2.79,0,0,0,70.86,50.85Z"/><path class="cls-3" d="M77.92,49.56l.19-.08a1.4,1.4,0,0,1,.29-.09.66.66,0,0,1,.24,0c.07,0,.09.08.07.19a.52.52,0,0,1-.08.19.54.54,0,0,0-.1.18,3,3,0,0,0-.12.33.33.33,0,0,0,0,.31.87.87,0,0,0,.38,0l.38-.12.2-.1a2.11,2.11,0,0,1,.3-.16,1.31,1.31,0,0,1,.29-.11c.08,0,.14,0,.16,0s0,.1,0,.16a1,1,0,0,1-.23.14l-.28.13-.18.07-.46.22a2,2,0,0,1-.47.15.29.29,0,0,1-.3-.09.59.59,0,0,1-.08-.31,1.56,1.56,0,0,1,.06-.41,3.26,3.26,0,0,1,.11-.4l-.46.16c-.14.06-.29.11-.43.18l-.37.19a.16.16,0,0,1-.18-.06q-.06-.09.06-.15Zm1.19-2.06a.69.69,0,0,1,.16-.23,1,1,0,0,1,.24-.15,1.33,1.33,0,0,1,.28-.1l.28-.06a4.34,4.34,0,0,1,.72,0l.14,0a.11.11,0,0,1,.07.12.22.22,0,0,1,0,.08.1.1,0,0,1-.1,0,2.43,2.43,0,0,0-.61-.05,1.14,1.14,0,0,0-.58.19.31.31,0,0,0-.14.16.43.43,0,0,1-.12.17.18.18,0,0,1-.22,0A.18.18,0,0,1,79.11,47.5Z"/><path class="cls-3" d="M80,50.06l.52-.25.52-.23a4.25,4.25,0,0,1,.56-.15,3.81,3.81,0,0,1,.59,0,.24.24,0,0,1,.17.06s0,.1,0,.19a.21.21,0,0,1-.18.1,2.44,2.44,0,0,0-.54,0,1.46,1.46,0,0,0-.51.12.7.7,0,0,0-.17.09.79.79,0,0,0-.17.14.45.45,0,0,0-.11.17.26.26,0,0,0,0,.19.35.35,0,0,0,.31.2.83.83,0,0,0,.39,0,.85.85,0,0,0,.24-.08l.18-.09L82,50.4a.17.17,0,0,1,.14.05.21.21,0,0,1,0,.23c0,.09-.08.17-.1.23l-.15.34c.19-.19.38-.38.58-.55a4.88,4.88,0,0,1,.66-.46l.08-.07.11-.07.12-.05a.11.11,0,0,1,.1,0s.07.07.06.11a.58.58,0,0,1-.08.1q-.25.13-.51.3a4,4,0,0,0-.47.37,5.79,5.79,0,0,0-.51.48,5.37,5.37,0,0,0-.44.53l-.27.61-.24.62c-.08.21-.17.42-.27.62l-.07.15a1.63,1.63,0,0,1-.11.17.37.37,0,0,1-.13.12.25.25,0,0,1-.17,0,.17.17,0,0,1-.15-.11.34.34,0,0,1,0-.2,1,1,0,0,1,.06-.23,1.89,1.89,0,0,1,.06-.18,4.86,4.86,0,0,1,.49-.89c.19-.29.4-.56.61-.82l.35-1a2.26,2.26,0,0,1-.39.07,1.8,1.8,0,0,1-.4,0,.91.91,0,0,1-.33-.1.54.54,0,0,1-.22-.27.53.53,0,0,1,0-.43l-.16.11a.19.19,0,0,1-.15,0,.1.1,0,0,1-.12-.09A.1.1,0,0,1,80,50.06Z"/><path class="cls-3" d="M83.39,50.05a13.5,13.5,0,0,0,1.25-.66,6.13,6.13,0,0,0,1-.78l.36-.67c.12-.19.24-.4.38-.6a1.84,1.84,0,0,1,.49-.51l.2-.09a.77.77,0,0,1,.25,0,.29.29,0,0,1,.19.06c0,.05,0,.13,0,.25a.72.72,0,0,1-.15.27,1.64,1.64,0,0,1-.21.25,2.55,2.55,0,0,1-.24.23l-.21.21-.44.41a5.58,5.58,0,0,1-.46.39l-.12.22-.11.22-.18.34c-.06.12-.13.23-.2.35.21-.12.42-.24.64-.34l.66-.3a1,1,0,0,1,.26-.1.48.48,0,0,1,.29,0,.26.26,0,0,1,.2.19.4.4,0,0,1,0,.28,1.32,1.32,0,0,1-.16.25l-.2.25a1.06,1.06,0,0,0-.17.26.63.63,0,0,0-.08.28,2.5,2.5,0,0,0,.56-.16l.53-.25.18-.11.19-.1a.12.12,0,0,1,.1,0l.07.06s0,0,0,.09,0,.06-.07.08a3.88,3.88,0,0,1-.45.24,4,4,0,0,0-.46.24l-.22.12a1.12,1.12,0,0,1-.25.11.54.54,0,0,1-.25,0,.32.32,0,0,1-.22-.12.3.3,0,0,1-.07-.19.65.65,0,0,1,0-.2.76.76,0,0,1,.12-.19l.11-.17a2.32,2.32,0,0,0,.22-.3.75.75,0,0,0,.13-.34h-.18l-.2.06-.2.07-.16.07a3.61,3.61,0,0,0-.44.22c-.14.07-.27.16-.41.24s-.37.28-.46.36l-.19.17-.12.07a.19.19,0,0,1-.15,0s-.08-.1-.07-.14a.31.31,0,0,1,.06-.13,5.72,5.72,0,0,0,.55-.65q.24-.35.45-.72a6.36,6.36,0,0,1-.55.4l-.57.36-.34.2-.34.19-.11,0a.11.11,0,0,1-.11,0,.16.16,0,0,1,0-.11A.11.11,0,0,1,83.39,50.05Zm3.23-2.31.27-.29a1.23,1.23,0,0,0,.23-.33,1.2,1.2,0,0,0-.41.31,2.41,2.41,0,0,0-.33.4l-.21.36c.07-.08.15-.15.23-.23Z"/><path class="cls-3" d="M92.41,48.19a7.88,7.88,0,0,1,.92-.69c.32-.2.65-.39,1-.56l.54-.25.55-.22L95.8,46a4.68,4.68,0,0,1,.39-.38,1.46,1.46,0,0,1,.46-.28l.17,0h.23a.36.36,0,0,1,.18.07s0,.1,0,.19a.18.18,0,0,1-.25.1.31.31,0,0,0-.19,0,.68.68,0,0,0-.2.07.82.82,0,0,0-.2.12l-.15.12a1.8,1.8,0,0,0-.2.18l-.19.18a1.45,1.45,0,0,1,.3-.06l.31-.05a3.17,3.17,0,0,1,.54,0,2.62,2.62,0,0,1,.56.09,1.48,1.48,0,0,1,.51.23,1.07,1.07,0,0,1,.36.4,1,1,0,0,1,.11.5,2,2,0,0,1-.09.52,2.75,2.75,0,0,1-.23.49,3.55,3.55,0,0,1-.28.43,6.54,6.54,0,0,1-1.63,1.56,7.16,7.16,0,0,1-2,.94c-.3.07-.59.13-.89.18a1.14,1.14,0,0,0,.07.22.44.44,0,0,0,.13.18c.05,0,.08.09.07.14a.14.14,0,0,1-.07.11.24.24,0,0,1-.15,0,.22.22,0,0,1-.16-.1.94.94,0,0,1-.14-.26,1.59,1.59,0,0,1-.06-.3c-.19,0-.38,0-.58,0a5.62,5.62,0,0,1-.58,0h-.21l-.28,0a.69.69,0,0,1-.23-.09.16.16,0,0,1-.07-.17.17.17,0,0,1,.08-.13.22.22,0,0,1,.14,0l.33.09.34,0a4.38,4.38,0,0,0,.52,0,4.73,4.73,0,0,0,.53,0,2.85,2.85,0,0,1,.12-.7c.08-.23.15-.43.21-.62a9.21,9.21,0,0,1,.47-1.06c.17-.35.36-.69.55-1s.21-.36.33-.54.23-.35.36-.53a9,9,0,0,0-1,.45,6.86,6.86,0,0,0-.85.55l-.18.15-.16.16a.66.66,0,0,0-.16.17.47.47,0,0,1-.17.15.13.13,0,0,1-.13,0,.26.26,0,0,1-.11-.07.28.28,0,0,1,0-.13A.14.14,0,0,1,92.41,48.19Zm3.13-1.48c-.28.37-.53.72-.74,1a11.53,11.53,0,0,0-.59,1c-.18.35-.34.72-.49,1.1A5.32,5.32,0,0,0,93.41,51s0,.07,0,.11,0,.09,0,.15A7.07,7.07,0,0,0,94.66,51a5.79,5.79,0,0,0,1.18-.56,6.81,6.81,0,0,0,.82-.59,6.9,6.9,0,0,0,.72-.71c.1-.12.19-.25.29-.38a3.87,3.87,0,0,0,.27-.43,3,3,0,0,0,.19-.45,1.5,1.5,0,0,0,.08-.47.62.62,0,0,0-.12-.38,1,1,0,0,0-.28-.27,1.61,1.61,0,0,0-.38-.16,1.78,1.78,0,0,0-.39-.07,3.86,3.86,0,0,0-.76,0A5.11,5.11,0,0,0,95.54,46.71Z"/><path class="cls-3" d="M98,50.05l.38-.2a2.5,2.5,0,0,1,.41-.19,1,1,0,0,1,.37-.39,1.75,1.75,0,0,1,.52-.2H100a.44.44,0,0,1,.29.16.15.15,0,0,1,0,.17.38.38,0,0,1-.12.17.9.9,0,0,1-.19.15l-.16.1a1.68,1.68,0,0,1-.41.17A1.29,1.29,0,0,1,99,50h0a.62.62,0,0,0,.18.35,1,1,0,0,0,.34.18,1.07,1.07,0,0,0,.4,0,2.34,2.34,0,0,0,.39,0,2.52,2.52,0,0,0,.47-.13l.46-.17.21-.1a1.24,1.24,0,0,0,.2-.1.26.26,0,0,1,.15,0s.06.07,0,.14a.26.26,0,0,1-.14.11l-.16.06-.51.22a6.76,6.76,0,0,1-.93.31,1.13,1.13,0,0,1-.41,0,1.24,1.24,0,0,1-.39-.09.87.87,0,0,1-.32-.22.71.71,0,0,1-.2-.36,1,1,0,0,1,0-.17.26.26,0,0,1,0-.15.94.94,0,0,0-.22.12l-.19.11-.14.08a.13.13,0,0,1-.16,0,.11.11,0,0,1,0-.12A.1.1,0,0,1,98,50.05Zm1-.28a1.19,1.19,0,0,0,.48-.13,1.38,1.38,0,0,0,.4-.28.69.69,0,0,0-.28,0,.76.76,0,0,0-.47.24A.63.63,0,0,0,99,49.77Z"/><path class="cls-3" d="M101.55,50.05l.77-.33.75-.34.18-.09a.17.17,0,0,1,.18,0,.2.2,0,0,1,.09.1.12.12,0,0,1,0,.1.39.39,0,0,1-.08.1.38.38,0,0,1-.09.09,1.37,1.37,0,0,0-.19.23l-.17.25a.91.91,0,0,0-.07.14l-.06.14c0,.14,0,.21,0,.22a.66.66,0,0,0,.28-.05,2.59,2.59,0,0,0,.33-.17l.2-.13.09-.07a.81.81,0,0,1,0-.34.93.93,0,0,1,.21-.32,2,2,0,0,1,.2-.16.3.3,0,0,1,.26,0c.1,0,.15.09.14.17a.72.72,0,0,1-.07.25,1.64,1.64,0,0,1-.2.26,1.81,1.81,0,0,1-.24.24.75.75,0,0,0,.26,0,.9.9,0,0,0,.28,0,1.4,1.4,0,0,0,.28-.06l.25-.07.21-.07a.82.82,0,0,0,.19-.09.11.11,0,0,1,.14,0,.11.11,0,0,1,0,.14.25.25,0,0,1-.12.1l-.18.08-.19.05-.16,0-.41.09a1.48,1.48,0,0,1-.42,0,.44.44,0,0,1-.32-.12l-.29.22-.29.18a1,1,0,0,1-.28.12.85.85,0,0,1-.31,0,.3.3,0,0,1-.22-.12.36.36,0,0,1,0-.33,3.11,3.11,0,0,1,.37-.82l-.28.1-.28.1-.31.13-.29.16-.13,0a.11.11,0,0,1-.12-.06A.12.12,0,0,1,101.55,50.05Z"/><path class="cls-3" d="M105.6,50.05l.38-.2a2.42,2.42,0,0,1,.4-.19,1.09,1.09,0,0,1,.38-.39,1.65,1.65,0,0,1,.52-.2h.33a.42.42,0,0,1,.29.16.16.16,0,0,1,0,.17.66.66,0,0,1-.12.17,1,1,0,0,1-.2.15l-.16.1a1.61,1.61,0,0,1-.4.17,1.31,1.31,0,0,1-.44,0h0a.56.56,0,0,0,.18.35,1,1,0,0,0,.34.18,1.07,1.07,0,0,0,.4,0,2.11,2.11,0,0,0,.38,0,2.62,2.62,0,0,0,.48-.13l.46-.17.21-.1a1.24,1.24,0,0,0,.2-.1.27.27,0,0,1,.15,0c.05,0,.05.07,0,.14a.26.26,0,0,1-.14.11l-.16.06-.51.22a7.79,7.79,0,0,1-.93.31,1.14,1.14,0,0,1-.41,0,1.24,1.24,0,0,1-.39-.09.87.87,0,0,1-.32-.22.72.72,0,0,1-.21-.36l0-.17a.38.38,0,0,1,0-.15,1.19,1.19,0,0,0-.22.12l-.19.11-.13.08a.14.14,0,0,1-.16,0,.14.14,0,0,1-.06-.12A.13.13,0,0,1,105.6,50.05Zm1-.28a1.14,1.14,0,0,0,.47-.13,1.3,1.3,0,0,0,.41-.28.69.69,0,0,0-.28,0,.72.72,0,0,0-.26.08.65.65,0,0,0-.21.16A.63.63,0,0,0,106.64,49.77Z"/><path class="cls-3" d="M109.2,50.05c.21-.09.41-.2.61-.31s.39-.24.59-.38a4.37,4.37,0,0,1,.32-.55l.33-.52.35-.48.36-.47.33-.41a1.33,1.33,0,0,1,.41-.34.92.92,0,0,1,.28-.09.19.19,0,0,1,.22.15.33.33,0,0,1,0,.22,1.06,1.06,0,0,1-.11.21,1.56,1.56,0,0,1-.16.2,1.47,1.47,0,0,1-.13.17,7.85,7.85,0,0,1-.91,1.09,8.78,8.78,0,0,1-1.09.93l-.11.26a1.48,1.48,0,0,0-.12.29,1.63,1.63,0,0,0-.07.3.65.65,0,0,0,0,.28l.2,0h.16l.09,0a4.44,4.44,0,0,0,.6-.16l.58-.22.19-.09a.21.21,0,0,1,.2,0q.1.09,0,.15a1,1,0,0,1-.16.1l-1.18.44-.33.12a1,1,0,0,1-.34.08.35.35,0,0,1-.25-.05.3.3,0,0,1-.12-.17.45.45,0,0,1,0-.23,1.5,1.5,0,0,1,0-.24,2.92,2.92,0,0,1,.19-.49,9.5,9.5,0,0,1-.88.5.17.17,0,0,1-.17-.07C109.1,50.14,109.11,50.09,109.2,50.05Zm2.07-1.39a7.94,7.94,0,0,0,.87-1,3.59,3.59,0,0,0,.35-.49.49.49,0,0,1,.06-.13.77.77,0,0,0,.07-.16,1.17,1.17,0,0,0-.27.2l-.21.2c-.15.16-.3.32-.44.49l-.4.54-.22.32-.19.32.19-.16Z"/><path class="cls-3" d="M113.26,49.59a4.13,4.13,0,0,1,.42-.14l.42-.12a1,1,0,0,1,.3-.11.33.33,0,0,1,.29,0,.13.13,0,0,1,.06.16.21.21,0,0,1,.15,0,.32.32,0,0,1,.09.32,1.19,1.19,0,0,1-.15.35.33.33,0,0,0,.12.11.64.64,0,0,0,.36.09,2.08,2.08,0,0,0,.36-.06l.15-.06.21-.1.2-.06c.06,0,.1,0,.12,0a.12.12,0,0,1,0,.14.34.34,0,0,1-.14.09l-.18.07-.12,0-.32.08-.34,0a1.1,1.1,0,0,1-.31,0,.74.74,0,0,1-.27-.16l-.22.23a3.45,3.45,0,0,1-.28.23,3.37,3.37,0,0,1-.32.19,1.06,1.06,0,0,1-.35.09.6.6,0,0,1-.35,0,.4.4,0,0,1-.24-.24.56.56,0,0,1,0-.31,1.34,1.34,0,0,1,.17-.31,2.11,2.11,0,0,1,.22-.26l.19-.19a3.66,3.66,0,0,0-.46.18l-.45.21-.1.06-.12.07-.12,0s-.07,0-.09,0a.13.13,0,0,1-.07-.11.13.13,0,0,1,.08-.11Zm.34.36a2,2,0,0,1-.15.15,1.88,1.88,0,0,0-.18.24.5.5,0,0,0-.1.23c0,.07,0,.11.13.13a1.2,1.2,0,0,0,.5,0,.9.9,0,0,0,.43-.23l.16-.15a.74.74,0,0,0,.12-.17,1.15,1.15,0,0,1-.06-.28.5.5,0,0,1,.08-.27,1.59,1.59,0,0,0-.51.13A1.46,1.46,0,0,0,113.6,50Z"/><path class="cls-3" d="M116.19,50.05a5,5,0,0,0,.52-.25l.51-.27.18-.08.22-.07c.08,0,.13,0,.17,0s0,.1,0,.21a1.06,1.06,0,0,1-.11.25,2.43,2.43,0,0,0-.15.26l-.26.53-.07.12-.06.12c.2-.23.42-.46.63-.67a6.8,6.8,0,0,1,.7-.61,4.18,4.18,0,0,1,.49-.31.89.89,0,0,1,.55-.1c.1,0,.17.06.19.13a.28.28,0,0,1,0,.22.77.77,0,0,1-.1.25l-.12.19-.43.54a3.6,3.6,0,0,0,.44-.12l.43-.16.14-.08.2-.1a.33.33,0,0,1,.18,0s.08,0,.08.11a.17.17,0,0,1-.09.13l-.2.11-.22.09-.17.06-.3.12-.52.17-.53.17a1.74,1.74,0,0,1-.33.08.14.14,0,0,1-.11-.05.28.28,0,0,1,0-.13.31.31,0,0,1,.07-.14.25.25,0,0,1,.18-.07.55.55,0,0,0,.31-.1l.25-.22a2.16,2.16,0,0,0,.36-.45l.09-.16a.64.64,0,0,0,.08-.2,1,1,0,0,0-.32.09,2.29,2.29,0,0,0-.31.16l-.29.21-.25.21a6.42,6.42,0,0,0-.62.55,8,8,0,0,0-.55.61l-.29.32-.68,1.42c0,.08-.09.18-.15.32a3.84,3.84,0,0,1-.21.4,1.72,1.72,0,0,1-.26.32.34.34,0,0,1-.3.09.24.24,0,0,1-.16-.11.48.48,0,0,1,0-.21,1.44,1.44,0,0,1,.09-.24c0-.09.09-.17.13-.25l.14-.22.09-.13c.17-.26.36-.52.56-.78l.59-.75c.15-.3.29-.61.42-.91s.25-.6.37-.9a1.66,1.66,0,0,0-.38.15,2.23,2.23,0,0,1-.35.17,1.3,1.3,0,0,0-.19.13.29.29,0,0,1-.21.06.1.1,0,0,1-.11-.1A.11.11,0,0,1,116.19,50.05Z"/><path class="cls-3" d="M120.34,50.06a5.21,5.21,0,0,1,.47-.24l.47-.23.2-.09a1.69,1.69,0,0,1,.27-.13l.27-.09a.32.32,0,0,1,.22,0,.14.14,0,0,1,.08.14.29.29,0,0,1-.06.17,1.13,1.13,0,0,1-.12.18l-.11.13-.09.17-.1.19.41-.32.32-.24.27-.18c.09,0,.18-.09.27-.12a.37.37,0,0,1,.29,0c.1,0,.13.12.1.26a1.34,1.34,0,0,1-.07.27,1.87,1.87,0,0,1-.12.25l.45-.27.46-.29.41-.25a1.16,1.16,0,0,1,.45-.16.34.34,0,0,1,.25,0,.28.28,0,0,1,.12.16.48.48,0,0,1,0,.21.58.58,0,0,1-.08.22c-.09.14-.18.28-.27.4s-.17.26-.24.39a.74.74,0,0,0,.38,0,2.2,2.2,0,0,0,.35-.13,1.69,1.69,0,0,0,.27-.11l.25-.11.1-.07.12-.07.13-.05h.11c.07,0,.09.08,0,.12a.38.38,0,0,1-.16.14.94.94,0,0,1-.22.12l-.16.07a1.83,1.83,0,0,1-.28.14l-.29.13-.43.17a.54.54,0,0,1-.43,0,.25.25,0,0,1-.15-.13.33.33,0,0,1,0-.17.45.45,0,0,1,.07-.18.61.61,0,0,1,.12-.15l.14-.15L125,50a.76.76,0,0,0,.12-.19.3.3,0,0,0,0-.21.31.31,0,0,0-.25,0l-.23.11a2.93,2.93,0,0,0-.59.29l-.55.37-.14.12-.21.15a.84.84,0,0,1-.22.1.13.13,0,0,1-.15-.1s0-.07,0-.12,0-.09.08-.15l.1-.14a.33.33,0,0,0,.07-.13.64.64,0,0,0,.06-.14l.06-.18a2,2,0,0,0-.44.19,2.59,2.59,0,0,0-.39.25c-.13.09-.25.19-.38.3l-.37.3a.57.57,0,0,1-.13.08.14.14,0,0,1-.14,0c-.06,0-.09-.06-.1-.1a.15.15,0,0,1,0-.11.76.76,0,0,1,.08-.11l.08-.08a3.09,3.09,0,0,0,.46-.81,3.06,3.06,0,0,0-.43.13L121,50l-.28.14a2.09,2.09,0,0,0-.29.16.11.11,0,0,1-.1,0,.13.13,0,0,1-.07-.05.13.13,0,0,1,0-.09A.09.09,0,0,1,120.34,50.06Z"/><path class="cls-3" d="M126.46,50.05l.38-.2a2.42,2.42,0,0,1,.4-.19,1.09,1.09,0,0,1,.38-.39,1.65,1.65,0,0,1,.52-.2h.33a.4.4,0,0,1,.29.16.16.16,0,0,1,0,.17.48.48,0,0,1-.12.17,1,1,0,0,1-.2.15l-.16.1a1.61,1.61,0,0,1-.4.17,1.29,1.29,0,0,1-.44,0h0a.56.56,0,0,0,.18.35,1,1,0,0,0,.34.18,1.07,1.07,0,0,0,.4,0,2.11,2.11,0,0,0,.38,0,2.42,2.42,0,0,0,.48-.13l.46-.17.21-.1a1.24,1.24,0,0,0,.2-.1.26.26,0,0,1,.15,0s0,.07,0,.14a.26.26,0,0,1-.14.11l-.16.06-.51.22a7.79,7.79,0,0,1-.93.31,1.14,1.14,0,0,1-.41,0,1.24,1.24,0,0,1-.39-.09.87.87,0,0,1-.32-.22.72.72,0,0,1-.21-.36l0-.17a.38.38,0,0,1,0-.15,1.19,1.19,0,0,0-.22.12l-.19.11-.13.08a.14.14,0,0,1-.16,0,.14.14,0,0,1-.06-.12A.13.13,0,0,1,126.46,50.05Zm1-.28a1.14,1.14,0,0,0,.47-.13,1.3,1.3,0,0,0,.41-.28.69.69,0,0,0-.28,0,.72.72,0,0,0-.26.08.65.65,0,0,0-.21.16A.63.63,0,0,0,127.5,49.77Z"/><path class="cls-3" d="M130,50.06l.39-.21.56-.28a2.84,2.84,0,0,1,.54-.18c.16,0,.26,0,.3.08a.2.2,0,0,1,0,.2.66.66,0,0,0-.1.18l-.12.28.26-.14.27-.12.67-.37a3,3,0,0,1,.7-.29.5.5,0,0,1,.24,0,.35.35,0,0,1,.16.09.35.35,0,0,1,.05.18.4.4,0,0,1-.08.23,1.69,1.69,0,0,1-.2.25l-.22.25-.07.08-.1.11a1.34,1.34,0,0,0-.11.14.21.21,0,0,0,0,.11.24.24,0,0,0,.17,0l.22,0,.2-.08.15-.06.42-.18.11-.06.13-.08.14-.07.11,0a.08.08,0,0,1,.09.09.18.18,0,0,1-.08.15l-.2.09-.21.1a2.34,2.34,0,0,1-.27.14l-.28.14-.26.11-.36.12a.64.64,0,0,1-.31,0,.24.24,0,0,1-.13-.25.41.41,0,0,1,.05-.19l.12-.16a.93.93,0,0,1,.14-.14l.14-.14a1.4,1.4,0,0,0,.2-.21.81.81,0,0,0,.19-.31,1.94,1.94,0,0,0-.56.15,4.08,4.08,0,0,0-.51.23c-.2.1-.41.2-.62.32a2.58,2.58,0,0,0-.55.42.16.16,0,0,1-.1,0,.2.2,0,0,1-.11,0,.2.2,0,0,1-.08-.08.19.19,0,0,1,0-.13.32.32,0,0,1,.15-.16c0-.06.07-.12.1-.19l.07-.13a.66.66,0,0,0,0-.15.4.4,0,0,0,0-.15l-.22.07-.17.06-.29.12-.28.12-.15.08-.15.08a.17.17,0,0,1-.12,0,.2.2,0,0,1-.08,0,.11.11,0,0,1,0-.08S130,50.08,130,50.06Z"/><path class="cls-3" d="M135.59,48.8a2.28,2.28,0,0,0,.37,0l.37,0c.19-.29.39-.6.62-.91a3.39,3.39,0,0,1,.75-.8l.16-.11a.64.64,0,0,1,.18-.06.19.19,0,0,1,.16.08.19.19,0,0,1,0,.18.86.86,0,0,1-.22.39c-.12.13-.21.24-.29.34s-.21.27-.33.4l-.34.38.6-.15,1-.3.15,0a.13.13,0,0,1,.14.07.17.17,0,0,1,0,.17.2.2,0,0,1-.11.11,6.42,6.42,0,0,1-1,.26l-1,.15-.14,0-.26.23-.27.22a2.39,2.39,0,0,0-.13.21l-.1.22-.06.15c0,.08,0,.17-.08.25s0,.16-.05.24,0,.1,0,.1a.81.81,0,0,0,.46,0l.44-.13.47-.16.46-.19.16,0c.07,0,.09,0,.09.12a.15.15,0,0,1-.13.13l-.19.07-.72.26-.34.15a2.78,2.78,0,0,1-.44.14.79.79,0,0,1-.4,0,.3.3,0,0,1-.22-.27,1,1,0,0,1,.09-.47c.07-.15.15-.32.25-.49a9.52,9.52,0,0,1-1,.56.12.12,0,0,1-.1,0,.17.17,0,0,1-.06-.06.1.1,0,0,1,0-.09.13.13,0,0,1,.07-.08c.24-.11.46-.22.69-.35s.43-.28.64-.43l.15-.25-.34,0a.48.48,0,0,1-.3,0,.11.11,0,0,1-.05-.14A.1.1,0,0,1,135.59,48.8Zm1.85-1,.1-.15.09-.17c-.06.07-.13.14-.18.21l-.15.16-.36.41a3.65,3.65,0,0,0-.32.45A5.87,5.87,0,0,0,137.44,47.83Z"/><path class="cls-3" d="M140.86,47.94l.8-.66.83-.64.51-.41a5.07,5.07,0,0,1,.54-.36,2.09,2.09,0,0,1,.3-.14.75.75,0,0,1,.33,0,.33.33,0,0,1,.28.25.7.7,0,0,1,0,.38,2.59,2.59,0,0,1-.33.72l-.46.65c-.18.25-.36.5-.55.74s-.37.48-.54.73l-.19.26-.3.47c-.11.18-.22.36-.33.57a3.44,3.44,0,0,0-.26.56,1.23,1.23,0,0,0-.11.44.17.17,0,0,0,.17.19.68.68,0,0,0,.38-.06,2,2,0,0,0,.43-.24l.41-.3.3-.24q.45-.37.87-.78l.82-.83q.84-.9,1.62-1.83c.52-.63,1-1.27,1.5-1.93a1.36,1.36,0,0,1,.12-.17.16.16,0,0,1,.2-.05.15.15,0,0,1,.12.11.2.2,0,0,1,0,.17,4.71,4.71,0,0,1-.36.42c-.14.13-.26.27-.38.4-.27.31-.53.63-.8.93l-.79.93c-.26.3-.51.6-.78.9l-.8.9c-.28.29-.56.58-.85.85a10.77,10.77,0,0,1-.92.75l-.3.2A1.62,1.62,0,0,1,142,52a1.17,1.17,0,0,1-.36.08.64.64,0,0,1-.35-.1.47.47,0,0,1-.24-.42,1.4,1.4,0,0,1,.12-.55,3,3,0,0,1,.3-.56l.27-.41c.24-.36.48-.71.74-1s.5-.68.74-1a6.14,6.14,0,0,0,.62-1l.12-.23c0-.07.07-.16.11-.25s.05-.17.07-.24a.41.41,0,0,0,0-.16s-.07,0-.16,0a1.12,1.12,0,0,0-.26.11,1.73,1.73,0,0,0-.27.15l-.17.1-.52.36c-.17.12-.33.25-.49.38l-.49.4-.46.44-.07.1a.43.43,0,0,1-.09.1.23.23,0,0,1-.1.07.14.14,0,0,1-.11,0,.17.17,0,0,1-.11-.14A.19.19,0,0,1,140.86,47.94Z"/><path class="cls-3" d="M145.29,50.06l.31-.15.4-.19.42-.18.33-.13.25-.09.39-.11a3.25,3.25,0,0,1,.38-.08.38.38,0,0,1,.26,0c.08.07.1.14.05.2a.31.31,0,0,1-.19.11l-.46.05a1.33,1.33,0,0,0-.24.1l-.22.14-.18.17-.25.27a1.6,1.6,0,0,0-.19.29c0,.09,0,.15,0,.2a.25.25,0,0,0,.2,0,1,1,0,0,0,.28-.1l.27-.12.16-.1a2.4,2.4,0,0,0,.48-.39.13.13,0,0,1,.2,0,.17.17,0,0,1,.06.21.37.37,0,0,1-.07.12l-.1.1a.35.35,0,0,0-.07.12c0,.05,0,.09,0,.11a.1.1,0,0,0,.07.05,1.23,1.23,0,0,0,.36,0,2.57,2.57,0,0,0,.44-.11,2.75,2.75,0,0,0,.45-.17l.39-.17.11-.06.15-.08a.4.4,0,0,1,.15,0,.1.1,0,0,1,.1.06s0,.08,0,.12a.36.36,0,0,1-.12.08l-.17.07-.12,0-.34.16-.36.16-.27.12a1.48,1.48,0,0,1-.29.12,1.73,1.73,0,0,1-.31.07.46.46,0,0,1-.29,0c-.12-.05-.19-.11-.21-.2a.5.5,0,0,1,0-.27l-.27.17-.36.2a.86.86,0,0,1-.4.13.5.5,0,0,1-.32-.08.34.34,0,0,1-.16-.28.54.54,0,0,1,.09-.26,1.94,1.94,0,0,1,.2-.33,2.8,2.8,0,0,1,.28-.31,1.58,1.58,0,0,1,.29-.22l-.23.1a3.67,3.67,0,0,0-.36.17l-.41.21-.41.2a.11.11,0,0,1-.1,0,.14.14,0,0,1-.08-.05.19.19,0,0,1,0-.08A.13.13,0,0,1,145.29,50.06Z"/><path class="cls-3" d="M149.79,50.05c.21-.09.41-.2.61-.31s.39-.24.59-.38a4.37,4.37,0,0,1,.32-.55l.33-.52.35-.48.36-.47.33-.41a1.33,1.33,0,0,1,.41-.34.92.92,0,0,1,.28-.09.19.19,0,0,1,.22.15.33.33,0,0,1,0,.22,1.06,1.06,0,0,1-.11.21,1.56,1.56,0,0,1-.16.2,1.47,1.47,0,0,1-.13.17,7.85,7.85,0,0,1-.91,1.09,8.78,8.78,0,0,1-1.09.93l-.11.26A1.48,1.48,0,0,0,151,50a1.63,1.63,0,0,0-.07.3.65.65,0,0,0,0,.28l.2,0h.16l.09,0a4.44,4.44,0,0,0,.6-.16l.58-.22.19-.09a.21.21,0,0,1,.2,0q.1.09,0,.15a1,1,0,0,1-.16.1l-1.18.44-.33.12A1,1,0,0,1,151,51a.35.35,0,0,1-.25-.05.3.3,0,0,1-.12-.17.45.45,0,0,1,0-.23,1.5,1.5,0,0,1,0-.24,2.92,2.92,0,0,1,.19-.49,9.5,9.5,0,0,1-.88.5.17.17,0,0,1-.17-.07C149.69,50.14,149.7,50.09,149.79,50.05Zm2.07-1.39a7.94,7.94,0,0,0,.87-1,3.59,3.59,0,0,0,.35-.49.49.49,0,0,1,.06-.13.77.77,0,0,0,.07-.16,1.17,1.17,0,0,0-.27.2l-.21.2c-.15.16-.3.32-.44.49l-.4.54-.22.32-.19.32.19-.16Z"/><path class="cls-3" d="M152.78,50.05a3.28,3.28,0,0,0,.52-.2l.51-.22.19-.12.26-.16a1,1,0,0,1,.25-.1.17.17,0,0,1,.18.07.18.18,0,0,1,0,.16.72.72,0,0,1-.11.15l-.15.14-.13.11a2.46,2.46,0,0,0-.29.34.58.58,0,0,0-.14.38.92.92,0,0,0,.38-.09l.36-.15a10,10,0,0,0,1-.51c.18-.11.33-.22.48-.33a.17.17,0,0,1,.19,0,.17.17,0,0,1,.07.19.38.38,0,0,1-.08.17.94.94,0,0,0-.12.18.83.83,0,0,0-.1.23.36.36,0,0,0,0,.25.35.35,0,0,0,.27,0l.27-.08a6,6,0,0,0,.81-.35l.18-.08a.1.1,0,0,1,.16,0c0,.07,0,.11,0,.14l-.13.08-.68.31-.47.21a.76.76,0,0,1-.51.06c-.12,0-.19-.1-.2-.21a.6.6,0,0,1,0-.3l.15-.37-.51.26a4.9,4.9,0,0,1-.52.24l-.26.15a3.18,3.18,0,0,1-.32.16,1.6,1.6,0,0,1-.33.11.47.47,0,0,1-.29,0,.18.18,0,0,1-.13-.16.74.74,0,0,1,.06-.27,2,2,0,0,1,.17-.32l.24-.34-.25.11-.6.23a1.92,1.92,0,0,1-.28.11c-.05,0-.08,0-.1,0a.15.15,0,0,1-.05-.07.14.14,0,0,1,0-.09A.17.17,0,0,1,152.78,50.05Z"/><path class="cls-3" d="M157.6,50.05l.38-.2a2.09,2.09,0,0,1,.4-.19,1.09,1.09,0,0,1,.38-.39,1.65,1.65,0,0,1,.52-.2h.33a.42.42,0,0,1,.29.16.16.16,0,0,1,0,.17.52.52,0,0,1-.13.17.7.7,0,0,1-.19.15l-.16.1a1.61,1.61,0,0,1-.4.17,1.31,1.31,0,0,1-.44,0h-.05a.57.57,0,0,0,.19.35.92.92,0,0,0,.34.18,1,1,0,0,0,.4,0,2.22,2.22,0,0,0,.38,0,2.85,2.85,0,0,0,.48-.13l.46-.17.21-.1.2-.1a.24.24,0,0,1,.14,0s.06.07,0,.14a.26.26,0,0,1-.14.11l-.17.06-.51.22a7.12,7.12,0,0,1-.92.31,1.19,1.19,0,0,1-.42,0,1.12,1.12,0,0,1-.38-.09,1,1,0,0,1-.33-.22.79.79,0,0,1-.2-.36c0-.06,0-.11,0-.17a.38.38,0,0,1,0-.15.94.94,0,0,0-.22.12l-.19.11-.13.08a.14.14,0,0,1-.16,0,.14.14,0,0,1-.06-.12A.11.11,0,0,1,157.6,50.05Zm1-.28a1.14,1.14,0,0,0,.47-.13,1.26,1.26,0,0,0,.4-.28.67.67,0,0,0-.28,0,.73.73,0,0,0-.25.08.65.65,0,0,0-.21.16A.49.49,0,0,0,158.64,49.77Z"/></g></g></svg>