<svg xmlns="http://www.w3.org/2000/svg" xmlns:xlink="http://www.w3.org/1999/xlink" viewBox="0 0 24.47 24.48"><defs><style>.cls-1,.cls-2{fill:url(#Degradado_sin_nombre_79);}.cls-2{fill-rule:evenodd;}</style><linearGradient id="Degradado_sin_nombre_79" x1="217.58" y1="12.24" x2="-75.04" y2="12.24" gradientUnits="userSpaceOnUse"><stop offset="0" stop-color="#ebb900"/><stop offset="1" stop-color="#ec7100"/></linearGradient></defs><title>Asset 5</title><g id="Layer_2" data-name="Layer 2"><g id="Capa_1" data-name="Capa 1"><path class="cls-1" d="M12.24,0A12.22,12.22,0,1,1,3.58,3.58,12.26,12.26,0,0,1,12.24,0Zm8,4.26a11.3,11.3,0,1,0,3.3,8,11.24,11.24,0,0,0-3.3-8Z"/><path class="cls-2" d="M18.48,8.43a5.79,5.79,0,0,1-1.47.4,2.51,2.51,0,0,0,1.13-1.41A4.88,4.88,0,0,1,16.51,8a2.58,2.58,0,0,0-4.44,1.72,2.7,2.7,0,0,0,.08.58A7.28,7.28,0,0,1,6.86,7.7,2.63,2.63,0,0,0,6.51,9a2.52,2.52,0,0,0,1.14,2.1,2.54,2.54,0,0,1-1.16-.31v0a2.27,2.27,0,0,0,.18.91,2.56,2.56,0,0,0,1.88,1.56,2.54,2.54,0,0,1-.68.09,2.61,2.61,0,0,1-.48,0,2.58,2.58,0,0,0,2.39,1.76,5.17,5.17,0,0,1-3.17,1.08c-.21,0-.41,0-.62,0a7.43,7.43,0,0,0,3.93,1.13A7.14,7.14,0,0,0,17,11.58a7.23,7.23,0,0,0,.17-1.52V9.73a5.23,5.23,0,0,0,1.27-1.3Z"/></g></g></svg>